<?xml version="1.0" encoding="UTF-8"?>
<svg id="Layer_1" data-name="Layer 1" xmlns="http://www.w3.org/2000/svg" version="1.1" viewBox="0 0 463.2 343.8">
  <path d="M247.6,106l47.7-27.5c9.3-5.4,20.7-5.4,30,0l58.4,33.7c9.3,5.4,15,15.3,15,26v67.4c0,10.7-5.7,20.6-15,26l-58.4,33.7c-9.3,5.4-20.7,5.4-30,0l-47.7-27.5c-9.9-5.7-22.1-5.7-32,0l-18.5,10.7c-13.3,7.7-13.3,26.9,0,34.6l98.2,56.7c9.3,5.4,20.7,5.4,30,0l122.9-70.9c9.3-5.4,15-15.3,15-26V100.9c0-10.7-5.7-20.6-15-26L325.3,4c-9.3-5.4-20.7-5.4-30,0l-98.2,56.7c-13.3,7.7-13.3,26.9,0,34.6l18.5,10.7c9.9,5.7,22.1,5.7,32,0Z" style="fill: #fff; stroke-width: 0px;"/>
  <path d="M221.6,234.3l-53.7,31c-9.3,5.4-20.7,5.4-30,0l-63.4-36.6c-6.2-3.6-10-10.2-10-17.3v-73.2c0-10.7,5.7-20.6,15-26l63.4-36.6c6.2-3.6,13.8-3.6,20,0l58.7,33.9c6.2,3.6,13.8,3.6,20,0l36.5-21.1c8-4.6,8-16.2,0-20.8L167.9,4c-9.3-5.4-20.7-5.4-30,0L15,75c-9.3,5.4-15,15.3-15,26v141.9c0,10.7,5.7,20.6,15,26l122.9,70.9c9.3,5.4,20.7,5.4,30,0l110.2-63.6c8-4.6,8-16.2,0-20.8l-36.5-21.1c-6.2-3.6-13.8-3.6-20,0Z" style="fill: #e14c4b; stroke-width: 0px;"/>
</svg>